<svg width="1200" height="900" viewBox="0 0 1200 900" xmlns="http://www.w3.org/2000/svg">
  <!-- Background -->
  <rect width="1200" height="900" fill="#f8f9fa"/>
  
  <!-- Title -->
  <text x="600" y="30" text-anchor="middle" font-size="24" font-weight="bold" fill="#1a73e8">
    Ransomware Detection System - Use Case Diagram
  </text>
  
  <!-- System Boundary -->
  <rect x="200" y="80" width="800" height="750" rx="15" fill="white" stroke="#1a73e8" stroke-width="3" stroke-dasharray="10,5"/>
  <text x="600" y="105" text-anchor="middle" font-size="18" font-weight="bold" fill="#1a73e8">GCP Ransomware Detection & Response System</text>
  
  <!-- Actors -->
  <!-- Legitimate User -->
  <g transform="translate(50, 150)">
    <circle cx="30" cy="20" r="15" fill="#34a853" stroke="#137333" stroke-width="2"/>
    <line x1="30" y1="35" x2="30" y2="70" stroke="#137333" stroke-width="3"/>
    <line x1="30" y1="50" x2="15" y2="65" stroke="#137333" stroke-width="2"/>
    <line x1="30" y1="50" x2="45" y2="65" stroke="#137333" stroke-width="2"/>
    <line x1="30" y1="70" x2="15" y2="90" stroke="#137333" stroke-width="2"/>
    <line x1="30" y1="70" x2="45" y2="90" stroke="#137333" stroke-width="2"/>
    <text x="30" y="105" text-anchor="middle" font-size="12" font-weight="bold" fill="#137333">Legitimate User</text>
  </g>
  
  <!-- Attacker/Malicious User -->
  <g transform="translate(50, 280)">
    <circle cx="30" cy="20" r="15" fill="#ea4335" stroke="#d33b2c" stroke-width="2"/>
    <line x1="30" y1="35" x2="30" y2="70" stroke="#d33b2c" stroke-width="3"/>
    <line x1="30" y1="50" x2="15" y2="65" stroke="#d33b2c" stroke-width="2"/>
    <line x1="30" y1="50" x2="45" y2="65" stroke="#d33b2c" stroke-width="2"/>
    <line x1="30" y1="70" x2="15" y2="90" stroke="#d33b2c" stroke-width="2"/>
    <line x1="30" y1="70" x2="45" y2="90" stroke="#d33b2c" stroke-width="2"/>
    <text x="30" y="105" text-anchor="middle" font-size="12" font-weight="bold" fill="#d33b2c">Attacker/</text>
    <text x="30" y="118" text-anchor="middle" font-size="12" font-weight="bold" fill="#d33b2c">Malicious User</text>
  </g>
  
  <!-- Security Administrator -->
  <g transform="translate(50, 450)">
    <circle cx="30" cy="20" r="15" fill="#4285f4" stroke="#1a73e8" stroke-width="2"/>
    <line x1="30" y1="35" x2="30" y2="70" stroke="#1a73e8" stroke-width="3"/>
    <line x1="30" y1="50" x2="15" y2="65" stroke="#1a73e8" stroke-width="2"/>
    <line x1="30" y1="50" x2="45" y2="65" stroke="#1a73e8" stroke-width="2"/>
    <line x1="30" y1="70" x2="15" y2="90" stroke="#1a73e8" stroke-width="2"/>
    <line x1="30" y1="70" x2="45" y2="90" stroke="#1a73e8" stroke-width="2"/>
    <text x="30" y="105" text-anchor="middle" font-size="12" font-weight="bold" fill="#1a73e8">Security</text>
    <text x="30" y="118" text-anchor="middle" font-size="12" font-weight="bold" fill="#1a73e8">Administrator</text>
  </g>
  
  <!-- Security Team -->
  <g transform="translate(50, 620)">
    <circle cx="30" cy="20" r="15" fill="#9334e9" stroke="#7c3aed" stroke-width="2"/>
    <line x1="30" y1="35" x2="30" y2="70" stroke="#7c3aed" stroke-width="3"/>
    <line x1="30" y1="50" x2="15" y2="65" stroke="#7c3aed" stroke-width="2"/>
    <line x1="30" y1="50" x2="45" y2="65" stroke="#7c3aed" stroke-width="2"/>
    <line x1="30" y1="70" x2="15" y2="90" stroke="#7c3aed" stroke-width="2"/>
    <line x1="30" y1="70" x2="45" y2="90" stroke="#7c3aed" stroke-width="2"/>
    <text x="30" y="105" text-anchor="middle" font-size="12" font-weight="bold" fill="#7c3aed">Security Team</text>
  </g>
  
  <!-- System/Cloud Scheduler -->
  <g transform="translate(1120, 150)">
    <circle cx="30" cy="20" r="15" fill="#ff6d01" stroke="#e8710a" stroke-width="2"/>
    <line x1="30" y1="35" x2="30" y2="70" stroke="#e8710a" stroke-width="3"/>
    <line x1="30" y1="50" x2="15" y2="65" stroke="#e8710a" stroke-width="2"/>
    <line x1="30" y1="50" x2="45" y2="65" stroke="#e8710a" stroke-width="2"/>
    <line x1="30" y1="70" x2="15" y2="90" stroke="#e8710a" stroke-width="2"/>
    <line x1="30" y1="70" x2="45" y2="90" stroke="#e8710a" stroke-width="2"/>
    <text x="30" y="105" text-anchor="middle" font-size="12" font-weight="bold" fill="#e8710a">Cloud Scheduler</text>
    <text x="30" y="118" text-anchor="middle" font-size="12" font-weight="bold" fill="#e8710a">(System Actor)</text>
  </g>
  
  <!-- Use Cases (Ovals) -->
  
  <!-- File Management Use Cases -->
  <g transform="translate(250, 140)">
    <ellipse cx="80" cy="30" rx="70" ry="25" fill="#e8f5e8" stroke="#34a853" stroke-width="2"/>
    <text x="80" y="25" text-anchor="middle" font-size="10" font-weight="bold">Upload Files</text>
    <text x="80" y="38" text-anchor="middle" font-size="9">to Cloud Storage</text>
  </g>
  
  <g transform="translate(400, 140)">
    <ellipse cx="80" cy="30" rx="70" ry="25" fill="#e8f5e8" stroke="#34a853" stroke-width="2"/>
    <text x="80" y="25" text-anchor="middle" font-size="10" font-weight="bold">Access Stored</text>
    <text x="80" y="38" text-anchor="middle" font-size="9">Files</text>
  </g>
  
  <!-- Malicious Activities -->
  <g transform="translate(250, 200)">
    <ellipse cx="90" cy="30" rx="80" ry="25" fill="#fce8e6" stroke="#ea4335" stroke-width="2"/>
    <text x="90" y="25" text-anchor="middle" font-size="10" font-weight="bold">Upload Ransomware</text>
    <text x="90" y="38" text-anchor="middle" font-size="9">Files</text>
  </g>
  
  <g transform="translate(400, 200)">
    <ellipse cx="90" cy="30" rx="80" ry="25" fill="#fce8e6" stroke="#ea4335" stroke-width="2"/>
    <text x="90" y="25" text-anchor="middle" font-size="10" font-weight="bold">Perform Bulk</text>
    <text x="90" y="38" text-anchor="middle" font-size="9">File Modifications</text>
  </g>
  
  <!-- Detection and Monitoring -->
  <g transform="translate(250, 280)">
    <ellipse cx="90" cy="30" rx="80" ry="25" fill="#fff3cd" stroke="#fbbc04" stroke-width="2"/>
    <text x="90" y="25" text-anchor="middle" font-size="10" font-weight="bold">Detect Suspicious</text>
    <text x="90" y="38" text-anchor="middle" font-size="9">File Patterns</text>
  </g>
  
  <g transform="translate(400, 280)">
    <ellipse cx="90" cy="30" rx="80" ry="25" fill="#fff3cd" stroke="#fbbc04" stroke-width="2"/>
    <text x="90" y="25" text-anchor="middle" font-size="10" font-weight="bold">Monitor File</text>
    <text x="90" y="38" text-anchor="middle" font-size="9">Activity Logs</text>
  </g>
  
  <g transform="translate(550, 280)">
    <ellipse cx="90" cy="30" rx="80" ry="25" fill="#fff3cd" stroke="#fbbc04" stroke-width="2"/>
    <text x="90" y="25" text-anchor="middle" font-size="10" font-weight="bold">Generate</text>
    <text x="90" y="38" text-anchor="middle" font-size="9">Log Metrics</text>
  </g>
  
  <!-- Alert and Response -->
  <g transform="translate(700, 280)">
    <ellipse cx="90" cy="30" rx="80" ry="25" fill="#ffe6cc" stroke="#ff6d01" stroke-width="2"/>
    <text x="90" y="25" text-anchor="middle" font-size="10" font-weight="bold">Trigger Security</text>
    <text x="90" y="38" text-anchor="middle" font-size="9">Alerts</text>
  </g>
  
  <g transform="translate(250, 360)">
    <ellipse cx="90" cy="30" rx="80" ry="25" fill="#ffe6cc" stroke="#ff6d01" stroke-width="2"/>
    <text x="90" y="25" text-anchor="middle" font-size="10" font-weight="bold">Isolate Infected</text>
    <text x="90" y="38" text-anchor="middle" font-size="9">VM Instance</text>
  </g>
  
  <g transform="translate(400, 360)">
    <ellipse cx="90" cy="30" rx="80" ry="25" fill="#ffe6cc" stroke="#ff6d01" stroke-width="2"/>
    <text x="90" y="25" text-anchor="middle" font-size="10" font-weight="bold">Send Email</text>
    <text x="90" y="38" text-anchor="middle" font-size="9">Notifications</text>
  </g>
  
  <g transform="translate(550, 360)">
    <ellipse cx="90" cy="30" rx="80" ry="25" fill="#ffe6cc" stroke="#ff6d01" stroke-width="2"/>
    <text x="90" y="25" text-anchor="middle" font-size="10" font-weight="bold">Send SMS</text>
    <text x="90" y="38" text-anchor="middle" font-size="9">Alerts</text>
  </g>
  
  <g transform="translate(700, 360)">
    <ellipse cx="90" cy="30" rx="80" ry="25" fill="#ffe6cc" stroke="#ff6d01" stroke-width="2"/>
    <text x="90" y="25" text-anchor="middle" font-size="10" font-weight="bold">Publish Pub/Sub</text>
    <text x="90" y="38" text-anchor="middle" font-size="9">Messages</text>
  </g>
  
  <!-- Administrative Functions -->
  <g transform="translate(250, 460)">
    <ellipse cx="90" cy="30" rx="80" ry="25" fill="#e3f2fd" stroke="#4285f4" stroke-width="2"/>
    <text x="90" y="25" text-anchor="middle" font-size="10" font-weight="bold">Configure Alert</text>
    <text x="90" y="38" text-anchor="middle" font-size="9">Policies</text>
  </g>
  
  <g transform="translate(400, 460)">
    <ellipse cx="90" cy="30" rx="80" ry="25" fill="#e3f2fd" stroke="#4285f4" stroke-width="2"/>
    <text x="90" y="25" text-anchor="middle" font-size="10" font-weight="bold">Manage IAM</text>
    <text x="90" y="38" text-anchor="middle" font-size="9">Permissions</text>
  </g>
  
  <g transform="translate(550, 460)">
    <ellipse cx="90" cy="30" rx="80" ry="25" fill="#e3f2fd" stroke="#4285f4" stroke-width="2"/>
    <text x="90" y="25" text-anchor="middle" font-size="10" font-weight="bold">Configure</text>
    <text x="90" y="38" text-anchor="middle" font-size="9">Firewall Rules</text>
  </g>
  
  <g transform="translate(700, 460)">
    <ellipse cx="90" cy="30" rx="80" ry="25" fill="#e3f2fd" stroke="#4285f4" stroke-width="2"/>
    <text x="90" y="25" text-anchor="middle" font-size="10" font-weight="bold">Monitor System</text>
    <text x="90" y="38" text-anchor="middle" font-size="9">Health</text>
  </g>
  
  <!-- Backup and Recovery -->
  <g transform="translate(300, 540)">
    <ellipse cx="90" cy="30" rx="80" ry="25" fill="#e8f5e8" stroke="#34a853" stroke-width="2"/>
    <text x="90" y="25" text-anchor="middle" font-size="10" font-weight="bold">Create Daily</text>
    <text x="90" y="38" text-anchor="middle" font-size="9">VM Snapshots</text>
  </g>
  
  <g transform="translate(450, 540)">
    <ellipse cx="90" cy="30" rx="80" ry="25" fill="#e8f5e8" stroke="#34a853" stroke-width="2"/>
    <text x="90" y="25" text-anchor="middle" font-size="10" font-weight="bold">Backup Files</text>
    <text x="90" y="38" text-anchor="middle" font-size="9">to Storage</text>
  </g>
  
  <g transform="translate(600, 540)">
    <ellipse cx="90" cy="30" rx="80" ry="25" fill="#e8f5e8" stroke="#34a853" stroke-width="2"/>
    <text x="90" y="25" text-anchor="middle" font-size="10" font-weight="bold">Restore from</text>
    <text x="90" y="38" text-anchor="middle" font-size="9">Backup</text>
  </g>
  
  <!-- Response Actions -->
  <g transform="translate(250, 620)">
    <ellipse cx="90" cy="30" rx="80" ry="25" fill="#f3e5f5" stroke="#9334e9" stroke-width="2"/>
    <text x="90" y="25" text-anchor="middle" font-size="10" font-weight="bold">Receive Alert</text>
    <text x="90" y="38" text-anchor="middle" font-size="9">Notifications</text>
  </g>
  
  <g transform="translate(400, 620)">
    <ellipse cx="90" cy="30" rx="80" ry="25" fill="#f3e5f5" stroke="#9334e9" stroke-width="2"/>
    <text x="90" y="25" text-anchor="middle" font-size="10" font-weight="bold">Investigate</text>
    <text x="90" y="38" text-anchor="middle" font-size="9">Security Incidents</text>
  </g>
  
  <g transform="translate(550, 620)">
    <ellipse cx="90" cy="30" rx="80" ry="25" fill="#f3e5f5" stroke="#9334e9" stroke-width="2"/>
    <text x="90" y="25" text-anchor="middle" font-size="10" font-weight="bold">Coordinate</text>
    <text x="90" y="38" text-anchor="middle" font-size="9">Response Actions</text>
  </g>
  
  <g transform="translate(700, 620)">
    <ellipse cx="90" cy="30" rx="80" ry="25" fill="#f3e5f5" stroke="#9334e9" stroke-width="2"/>
    <text x="90" y="25" text-anchor="middle" font-size="10" font-weight="bold">Initiate Recovery</text>
    <text x="90" y="38" text-anchor="middle" font-size="9">Procedures</text>
  </g>
  
  <!-- Logging and Auditing -->
  <g transform="translate(450, 700)">
    <ellipse cx="90" cy="30" rx="80" ry="25" fill="#f5f5f5" stroke="#9aa0a6" stroke-width="2"/>
    <text x="90" y="25" text-anchor="middle" font-size="10" font-weight="bold">Maintain Audit</text>
    <text x="90" y="38" text-anchor="middle" font-size="9">Trails</text>
  </g>
  
  <g transform="translate(600, 700)">
    <ellipse cx="90" cy="30" rx="80" ry="25" fill="#f5f5f5" stroke="#9aa0a6" stroke-width="2"/>
    <text x="90" y="25" text-anchor="middle" font-size="10" font-weight="bold">Generate</text>
    <text x="90" y="38" text-anchor="middle" font-size="9">Compliance Reports</text>
  </g>
  
  <!-- Relationships (Lines) -->
  
  <!-- Legitimate User relationships -->
  <line x1="90" y1="180" x2="250" y2="165" stroke="#34a853" stroke-width="2"/>
  <line x1="90" y1="185" x2="400" y2="165" stroke="#34a853" stroke-width="2"/>
  
  <!-- Attacker relationships -->
  <line x1="90" y1="320" x2="250" y2="225" stroke="#ea4335" stroke-width="2"/>
  <line x1="90" y1="325" x2="400" y2="225" stroke="#ea4335" stroke-width="2"/>
  
  <!-- Security Administrator relationships -->
  <line x1="90" y1="480" x2="250" y2="485" stroke="#4285f4" stroke-width="2"/>
  <line x1="90" y1="485" x2="400" y2="485" stroke="#4285f4" stroke-width="2"/>
  <line x1="90" y1="490" x2="550" y2="485" stroke="#4285f4" stroke-width="2"/>
  <line x1="90" y1="495" x2="700" y2="485" stroke="#4285f4" stroke-width="2"/>
  
  <!-- Security Team relationships -->
  <line x1="90" y1="650" x2="250" y2="645" stroke="#9334e9" stroke-width="2"/>
  <line x1="90" y1="655" x2="400" y2="645" stroke="#9334e9" stroke-width="2"/>
  <line x1="90" y1="660" x2="550" y2="645" stroke="#9334e9" stroke-width="2"/>
  <line x1="90" y1="665" x2="700" y2="645" stroke="#9334e9" stroke-width="2"/>
  
  <!-- Cloud Scheduler relationships -->
  <line x1="1110" y1="180" x2="900" y2="565" stroke="#ff6d01" stroke-width="2"/>
  <line x1="1105" y1="185" x2="850" y2="565" stroke="#ff6d01" stroke-width="2"/>
  
  <!-- Include relationships (dashed lines) -->
  <line x1="340" y1="225" x2="340" y2="280" stroke="#666" stroke-width="1" stroke-dasharray="5,5"/>
  <text x="350" y="252" font-size="8" fill="#666">«include»</text>
  
  <line x1="490" y1="225" x2="490" y2="280" stroke="#666" stroke-width="1" stroke-dasharray="5,5"/>
  <text x="500" y="252" font-size="8" fill="#666">«include»</text>
  
  <line x1="490" y1="305" x2="640" y2="305" stroke="#666" stroke-width="1" stroke-dasharray="5,5"/>
  <text x="560" y="300" font-size="8" fill="#666">«include»</text>
  
  <line x1="640" y1="305" x2="790" y2="305" stroke="#666" stroke-width="1" stroke-dasharray="5,5"/>
  <text x="710" y="300" font-size="8" fill="#666">«include»</text>
  
  <!-- Extend relationships -->
  <line x1="340" y1="385" x2="490" y2="385" stroke="#666" stroke-width="1" stroke-dasharray="3,3"/>
  <text x="410" y="380" font-size="8" fill="#666">«extend»</text>
  
  <line x1="490" y1="385" x2="640" y2="385" stroke="#666" stroke-width="1" stroke-dasharray="3,3"/>
  <text x="560" y="380" font-size="8" fill="#666">«extend»</text>
  
  <line x1="640" y1="385" x2="790" y2="385" stroke="#666" stroke-width="1" stroke-dasharray="3,3"/>
  <text x="710" y="380" font-size="8" fill="#666">«extend»</text>
  
  <!-- Legend -->
  <g transform="translate(50, 780)">
    <rect x="0" y="0" width="1100" height="100" rx="8" fill="white" stroke="#ddd" stroke-width="1"/>
    <text x="20" y="20" font-size="14" font-weight="bold" fill="#1a73e8">Use Case Relationships & Actor Legend</text>
    
    <!-- Actor Legend -->
    <text x="20" y="45" font-size="12" font-weight="bold">Actors:</text>
    <circle cx="90" cy="50" r="8" fill="#34a853"/>
    <text x="110" y="55" font-size="10">Legitimate User - Normal file operations</text>
    
    <circle cx="90" cy="70" r="8" fill="#ea4335"/>
    <text x="110" y="75" font-size="10">Attacker/Malicious User - Ransomware activities</text>
    
    <circle cx="320" cy="50" r="8" fill="#4285f4"/>
    <text x="340" y="55" font-size="10">Security Administrator - System configuration</text>
    
    <circle cx="320" cy="70" r="8" fill="#9334e9"/>
    <text x="340" y="75" font-size="10">Security Team - Incident response</text>
    
    <circle cx="550" cy="60" r="8" fill="#ff6d01"/>
    <text x="570" y="65" font-size="10">Cloud Scheduler - Automated operations</text>
    
    <!-- Relationship Legend -->
    <text x="700" y="45" font-size="12" font-weight="bold">Relationships:</text>
    <line x1="700" y1="55" x2="750" y2="55" stroke="#333" stroke-width="2"/>
    <text x="760" y="60" font-size="10">Association</text>
    
    <line x1="700" y1="70" x2="750" y2="70" stroke="#666" stroke-width="1" stroke-dasharray="5,5"/>
    <text x="760" y="75" font-size="10">«include» - Mandatory inclusion</text>
    
    <line x1="700" y1="85" x2="750" y2="85" stroke="#666" stroke-width="1" stroke-dasharray="3,3"/>
    <text x="760" y="90" font-size="10">«extend» - Optional extension</text>
  </g>
  
</svg>